<?xml version="1.0" standalone="yes"?>

<svg version="1.1" viewBox="0.0 0.0 960.0 720.0" fill="none" stroke="none" stroke-linecap="square" stroke-miterlimit="10" xmlns="http://www.w3.org/2000/svg" xmlns:xlink="http://www.w3.org/1999/xlink"><clipPath id="p3.0"><path d="m0 0l960.0 0l0 720.0l-960.0 0l0 -720.0z" clip-rule="nonzero"></path></clipPath><g clip-path="url(#p3.0)"><path fill="#7f7f7f" d="m391.11816 470.22946q0 6.21875 -1.34375 11.171875q-1.34375 4.953125 -3.953125 8.40625q-2.609375 3.453125 -6.46875 5.328125q-3.84375 1.875 -8.796875 1.875q-2.109375 0 -3.90625 -0.421875q-1.796875 -0.421875 -3.515625 -1.3125q-1.703125 -0.90625 -3.390625 -2.265625q-1.6875 -1.375 -3.59375 -3.21875l0 23.734344q0 0.421875 -0.21875 0.734375q-0.203125 0.3125 -0.671875 0.515625q-0.46875 0.21875 -1.3125 0.328125q-0.84375 0.109375 -2.171875 0.109375q-1.265625 0 -2.109375 -0.109375q-0.84375 -0.109375 -1.34375 -0.328125q-0.5 -0.203125 -0.6875 -0.515625q-0.1875 -0.3125 -0.1875 -0.734375l0 -66.296844q0 -0.46875 0.15625 -0.75q0.171875 -0.296875 0.640625 -0.5q0.46875 -0.21875 1.203125 -0.296875q0.75 -0.09375 1.796875 -0.09375q1.109375 0 1.8125 0.09375q0.71875 0.078125 1.1875 0.296875q0.484375 0.203125 0.671875 0.5q0.1875 0.28125 0.1875 0.75l0 6.375q2.15625 -2.203125 4.15625 -3.84375q2.015625 -1.640625 4.046875 -2.71875q2.03125 -1.078125 4.15625 -1.625q2.140625 -0.5625 4.515625 -0.5625q5.171875 0 8.796875 2.015625q3.640625 2.0 5.9375 5.484375q2.296875 3.46875 3.34375 8.09375q1.0625 4.609375 1.0625 9.78125zm-9.171875 1.0q0 -3.640625 -0.5625 -7.046875q-0.546875 -3.40625 -1.890625 -6.03125q-1.34375 -2.640625 -3.625 -4.21875q-2.265625 -1.59375 -5.640625 -1.59375q-1.6875 0 -3.328125 0.515625q-1.625 0.5 -3.3125 1.578125q-1.6875 1.078125 -3.53125 2.84375q-1.84375 1.765625 -3.90625 4.34375l0 18.890625q3.59375 4.375 6.8125 6.703125q3.21875 2.3125 6.75 2.3125q3.265625 0 5.609375 -1.578125q2.34375 -1.59375 3.796875 -4.21875q1.453125 -2.640625 2.140625 -5.90625q0.6875 -3.28125 0.6875 -6.59375zm30.945312 23.46875q0 0.421875 -0.21875 0.71875q-0.203125 0.28125 -0.671875 0.5q-0.46875 0.203125 -1.3125 0.296875q-0.84375 0.109375 -2.171875 0.109375q-1.265625 0 -2.109375 -0.109375q-0.84375 -0.09375 -1.34375 -0.296875q-0.5 -0.21875 -0.6875 -0.5q-0.1875 -0.296875 -0.1875 -0.71875l0 -47.46875q0 -0.375 0.1875 -0.6875q0.1875 -0.3125 0.6875 -0.515625q0.5 -0.21875 1.34375 -0.328125q0.84375 -0.109375 2.109375 -0.109375q1.328125 0 2.171875 0.109375q0.84375 0.109375 1.3125 0.328125q0.46875 0.203125 0.671875 0.515625q0.21875 0.3125 0.21875 0.6875l0 47.46875zm1.0 -63.5q0 3.0625 -1.15625 4.171875q-1.15625 1.109375 -4.265625 1.109375q-3.0625 0 -4.203125 -1.078125q-1.125 -1.09375 -1.125 -4.09375q0 -3.0625 1.15625 -4.171875q1.15625 -1.109375 4.28125 -1.109375q3.046875 0 4.171875 1.09375q1.140625 1.078125 1.140625 4.078125zm54.003906 15.921875q0 0.21875 -0.03125 0.453125q-0.015625 0.234375 -0.078125 0.5q-0.046875 0.265625 -0.125 0.578125q-0.078125 0.3125 -0.1875 0.6875l-16.1875 45.09375q-0.203125 0.578125 -0.546875 0.953125q-0.34375 0.359375 -1.03125 0.578125q-0.6875 0.203125 -1.75 0.28125q-1.046875 0.078125 -2.625 0.078125q-1.59375 0 -2.65625 -0.109375q-1.046875 -0.09375 -1.703125 -0.296875q-0.65625 -0.21875 -1.03125 -0.59375q-0.359375 -0.375 -0.578125 -0.890625l-16.125 -45.09375q-0.21875 -0.625 -0.359375 -1.09375q-0.125 -0.484375 -0.15625 -0.71875q-0.015625 -0.25 -0.015625 -0.40625q0 -0.421875 0.203125 -0.734375q0.21875 -0.3125 0.71875 -0.5q0.5 -0.1875 1.3125 -0.234375q0.828125 -0.0625 2.03125 -0.0625q1.53125 0 2.453125 0.09375q0.921875 0.078125 1.421875 0.296875q0.5 0.203125 0.734375 0.515625q0.25 0.3125 0.453125 0.78125l13.390625 39.140625l0.21875 0.625l0.15625 -0.625l13.234375 -39.140625q0.109375 -0.46875 0.375 -0.78125q0.265625 -0.3125 0.765625 -0.515625q0.5 -0.21875 1.359375 -0.296875q0.875 -0.09375 2.296875 -0.09375q1.21875 0 2.0 0.0625q0.796875 0.046875 1.25 0.265625q0.453125 0.203125 0.625 0.5q0.1875 0.28125 0.1875 0.703125zm53.998047 23.3125q0 5.796875 -1.53125 10.6875q-1.515625 4.875 -4.5625 8.40625q-3.03125 3.53125 -7.59375 5.515625q-4.546875 1.96875 -10.5625 1.96875q-5.859375 0 -10.21875 -1.734375q-4.34375 -1.75 -7.25 -5.0625q-2.890625 -3.328125 -4.3125 -8.0625q-1.421875 -4.75 -1.421875 -10.765625q0 -5.796875 1.5 -10.671875q1.5 -4.890625 4.53125 -8.421875q3.03125 -3.53125 7.5625 -5.484375q4.546875 -1.953125 10.609375 -1.953125q5.859375 0 10.203125 1.75q4.34375 1.734375 7.25 5.0625q2.90625 3.3125 4.34375 8.0625q1.453125 4.75 1.453125 10.703125zm-9.171875 0.578125q0 -3.84375 -0.71875 -7.265625q-0.703125 -3.4375 -2.34375 -6.015625q-1.625 -2.59375 -4.421875 -4.09375q-2.796875 -1.5 -6.96875 -1.5q-3.84375 0 -6.609375 1.375q-2.765625 1.359375 -4.5625 3.875q-1.796875 2.5 -2.671875 5.9375q-0.859375 3.421875 -0.859375 7.484375q0 3.890625 0.703125 7.328125q0.71875 3.421875 2.375 5.984375q1.65625 2.5625 4.453125 4.0625q2.796875 1.5 6.96875 1.5q3.796875 0 6.59375 -1.375q2.796875 -1.375 4.578125 -3.84375q1.796875 -2.484375 2.640625 -5.90625q0.84375 -3.4375 0.84375 -7.546875zm46.671875 20.203125q0 1.53125 -0.21875 2.421875q-0.203125 0.890625 -0.625 1.3125q-0.421875 0.421875 -1.265625 0.796875q-0.84375 0.375 -1.921875 0.609375q-1.078125 0.234375 -2.296875 0.390625q-1.21875 0.15625 -2.421875 0.15625q-3.703125 0 -6.34375 -0.96875q-2.625 -0.984375 -4.3125 -2.953125q-1.6875 -1.984375 -2.453125 -5.015625q-0.765625 -3.03125 -0.765625 -7.140625l0 -27.734375l-6.640625 0q-0.796875 0 -1.28125 -0.84375q-0.46875 -0.84375 -0.46875 -2.75q0 -1.0 0.125 -1.6875q0.140625 -0.6875 0.34375 -1.125q0.21875 -0.453125 0.5625 -0.640625q0.34375 -0.1875 0.765625 -0.1875l6.59375 0l0 -11.28125q0 -0.375 0.1875 -0.6875q0.1875 -0.3125 0.6875 -0.546875q0.5 -0.234375 1.34375 -0.34375q0.84375 -0.109375 2.109375 -0.109375q1.3125 0 2.15625 0.109375q0.84375 0.109375 1.3125 0.34375q0.484375 0.234375 0.6875 0.546875q0.21875 0.3125 0.21875 0.6875l0 11.28125l12.1875 0q0.421875 0 0.734375 0.1875q0.3125 0.1875 0.546875 0.640625q0.234375 0.4375 0.34375 1.125q0.109375 0.6875 0.109375 1.6875q0 1.90625 -0.484375 2.75q-0.46875 0.84375 -1.25 0.84375l-12.1875 0l0 26.46875q0 4.90625 1.453125 7.40625q1.453125 2.5 5.1875 2.5q1.21875 0 2.15625 -0.234375q0.953125 -0.234375 1.6875 -0.5q0.75 -0.265625 1.265625 -0.5q0.53125 -0.234375 0.953125 -0.234375q0.265625 0 0.5 0.140625q0.25 0.125 0.375 0.5q0.125 0.359375 0.234375 1.0q0.109375 0.625 0.109375 1.578125z" fill-rule="nonzero"></path><path fill="#244061" d="m583.75684 453.8232q0 1.6875 -0.234375 2.84375q-0.234375 1.15625 -0.90625 1.875q-0.65625 0.71875 -1.71875 1.015625q-1.046875 0.28125 -2.671875 0.28125q-1.6875 0 -2.75 -0.28125q-1.046875 -0.296875 -1.6875 -1.015625q-0.625 -0.71875 -0.875 -1.875q-0.234375 -1.15625 -0.234375 -2.84375q0 -1.796875 0.234375 -2.984375q0.25 -1.1875 0.875 -1.890625q0.640625 -0.71875 1.6875 -1.0q1.0625 -0.296875 2.75 -0.296875q1.625 0 2.671875 0.296875q1.0625 0.28125 1.71875 1.0q0.671875 0.703125 0.90625 1.890625q0.234375 1.1875 0.234375 2.984375zm0 36.59375q0 1.75 -0.234375 2.90625q-0.234375 1.15625 -0.90625 1.875q-0.65625 0.703125 -1.71875 0.984375q-1.046875 0.296875 -2.671875 0.296875q-1.6875 0 -2.75 -0.296875q-1.046875 -0.28125 -1.6875 -0.984375q-0.625 -0.71875 -0.875 -1.875q-0.234375 -1.15625 -0.234375 -2.90625q0 -1.734375 0.234375 -2.921875q0.25 -1.1875 0.875 -1.875q0.640625 -0.6875 1.6875 -1.0q1.0625 -0.3125 2.75 -0.3125q1.625 0 2.671875 0.3125q1.0625 0.3125 1.71875 1.0q0.671875 0.6875 0.90625 1.875q0.234375 1.1875 0.234375 2.921875z" fill-rule="nonzero"></path><path fill="#e36c09" d="m612.6553 453.8232q0 1.6875 -0.234375 2.84375q-0.234375 1.15625 -0.90625 1.875q-0.65625 0.71875 -1.71875 1.015625q-1.046875 0.28125 -2.671875 0.28125q-1.6875 0 -2.75 -0.28125q-1.046875 -0.296875 -1.6875 -1.015625q-0.625 -0.71875 -0.875 -1.875q-0.234375 -1.15625 -0.234375 -2.84375q0 -1.796875 0.234375 -2.984375q0.25 -1.1875 0.875 -1.890625q0.640625 -0.71875 1.6875 -1.0q1.0625 -0.296875 2.75 -0.296875q1.625 0 2.671875 0.296875q1.0625 0.28125 1.71875 1.0q0.671875 0.703125 0.90625 1.890625q0.234375 1.1875 0.234375 2.984375zm0 36.59375q0 1.75 -0.234375 2.90625q-0.234375 1.15625 -0.90625 1.875q-0.65625 0.703125 -1.71875 0.984375q-1.046875 0.296875 -2.671875 0.296875q-1.6875 0 -2.75 -0.296875q-1.046875 -0.28125 -1.6875 -0.984375q-0.625 -0.71875 -0.875 -1.875q-0.234375 -1.15625 -0.234375 -2.90625q0 -1.734375 0.234375 -2.921875q0.25 -1.1875 0.875 -1.875q0.640625 -0.6875 1.6875 -1.0q1.0625 -0.3125 2.75 -0.3125q1.625 0 2.671875 0.3125q1.0625 0.3125 1.71875 1.0q0.671875 0.6875 0.90625 1.875q0.234375 1.1875 0.234375 2.921875z" fill-rule="nonzero"></path><path fill="#7f7f7f" d="m350.05273 530.19885q0 0.21875 -0.03125 0.359375q-0.015625 0.125 -0.046875 0.21875q-0.03125 0.078125 -0.078125 0.109375q-0.046875 0.015625 -0.125 0.015625q-0.078125 0 -0.203125 -0.046875q-0.125 -0.046875 -0.296875 -0.109375q-0.171875 -0.078125 -0.421875 -0.125q-0.234375 -0.046875 -0.546875 -0.046875q-0.4375 0 -0.75 0.140625q-0.296875 0.140625 -0.484375 0.4375q-0.1875 0.296875 -0.265625 0.78125q-0.078125 0.46875 -0.078125 1.140625l0 1.15625l2.34375 0q0.09375 0 0.15625 0.046875q0.078125 0.03125 0.125 0.140625q0.046875 0.09375 0.078125 0.25q0.03125 0.140625 0.03125 0.359375q0 0.421875 -0.109375 0.609375q-0.09375 0.1875 -0.28125 0.1875l-2.34375 0l0 9.25q0 0.09375 -0.046875 0.15625q-0.046875 0.0625 -0.171875 0.125q-0.109375 0.046875 -0.296875 0.0625q-0.1875 0.03125 -0.46875 0.03125q-0.28125 0 -0.46875 -0.03125q-0.1875 -0.015625 -0.296875 -0.0625q-0.109375 -0.0625 -0.15625 -0.125q-0.046875 -0.0625 -0.046875 -0.15625l0 -9.25l-1.484375 0q-0.1875 0 -0.28125 -0.1875q-0.09375 -0.1875 -0.09375 -0.609375q0 -0.21875 0.015625 -0.359375q0.03125 -0.15625 0.078125 -0.25q0.046875 -0.109375 0.109375 -0.140625q0.078125 -0.046875 0.171875 -0.046875l1.484375 0l0 -1.09375q0 -1.109375 0.203125 -1.890625q0.203125 -0.796875 0.625 -1.296875q0.421875 -0.5 1.0625 -0.734375q0.640625 -0.25 1.515625 -0.25q0.40625 0 0.78125 0.078125q0.390625 0.078125 0.59375 0.171875q0.21875 0.078125 0.28125 0.15625q0.078125 0.0625 0.125 0.171875q0.046875 0.109375 0.0625 0.265625q0.03125 0.15625 0.03125 0.390625zm10.574219 14.875q0 0.09375 -0.046875 0.15625q-0.03125 0.0625 -0.140625 0.125q-0.109375 0.046875 -0.28125 0.0625q-0.15625 0.03125 -0.40625 0.03125q-0.265625 0 -0.4375 -0.03125q-0.171875 -0.015625 -0.28125 -0.0625q-0.09375 -0.0625 -0.125 -0.125q-0.03125 -0.0625 -0.03125 -0.15625l0 -1.390625q-0.90625 1.0 -1.796875 1.453125q-0.875 0.453125 -1.765625 0.453125q-1.0625 0 -1.78125 -0.34375q-0.71875 -0.359375 -1.171875 -0.953125q-0.4375 -0.609375 -0.640625 -1.40625q-0.1875 -0.8125 -0.1875 -1.953125l0 -6.40625q0 -0.09375 0.03125 -0.15625q0.046875 -0.0625 0.15625 -0.109375q0.125 -0.0625 0.3125 -0.078125q0.1875 -0.015625 0.46875 -0.015625q0.28125 0 0.46875 0.015625q0.1875 0.015625 0.296875 0.078125q0.125 0.046875 0.171875 0.109375q0.046875 0.0625 0.046875 0.15625l0 6.140625q0 0.921875 0.125 1.484375q0.140625 0.5625 0.40625 0.953125q0.28125 0.390625 0.703125 0.609375q0.421875 0.21875 0.984375 0.21875q0.734375 0 1.453125 -0.515625q0.71875 -0.515625 1.53125 -1.515625l0 -7.375q0 -0.09375 0.03125 -0.15625q0.046875 -0.0625 0.15625 -0.109375q0.125 -0.0625 0.296875 -0.078125q0.1875 -0.015625 0.484375 -0.015625q0.28125 0 0.46875 0.015625q0.1875 0.015625 0.28125 0.078125q0.109375 0.046875 0.15625 0.109375q0.0625 0.0625 0.0625 0.15625l0 10.546875zm9.0625 -0.765625q0 0.328125 -0.046875 0.53125q-0.046875 0.203125 -0.140625 0.296875q-0.09375 0.09375 -0.28125 0.1875q-0.1875 0.078125 -0.4375 0.125q-0.234375 0.046875 -0.5 0.078125q-0.265625 0.046875 -0.546875 0.046875q-0.8125 0 -1.40625 -0.21875q-0.578125 -0.21875 -0.953125 -0.65625q-0.375 -0.4375 -0.546875 -1.109375q-0.171875 -0.6875 -0.171875 -1.59375l0 -6.171875l-1.46875 0q-0.1875 0 -0.296875 -0.1875q-0.09375 -0.1875 -0.09375 -0.609375q0 -0.21875 0.03125 -0.359375q0.03125 -0.15625 0.078125 -0.25q0.046875 -0.109375 0.109375 -0.140625q0.078125 -0.046875 0.171875 -0.046875l1.46875 0l0 -2.515625q0 -0.078125 0.03125 -0.140625q0.046875 -0.078125 0.15625 -0.125q0.125 -0.0625 0.3125 -0.078125q0.1875 -0.03125 0.46875 -0.03125q0.28125 0 0.46875 0.03125q0.1875 0.015625 0.296875 0.078125q0.109375 0.046875 0.15625 0.125q0.046875 0.0625 0.046875 0.140625l0 2.515625l2.703125 0q0.09375 0 0.15625 0.046875q0.078125 0.03125 0.125 0.140625q0.0625 0.09375 0.078125 0.25q0.03125 0.140625 0.03125 0.359375q0 0.421875 -0.109375 0.609375q-0.109375 0.1875 -0.28125 0.1875l-2.703125 0l0 5.890625q0 1.09375 0.3125 1.65625q0.328125 0.546875 1.15625 0.546875q0.28125 0 0.484375 -0.046875q0.21875 -0.0625 0.375 -0.109375q0.171875 -0.0625 0.28125 -0.109375q0.125 -0.0625 0.21875 -0.0625q0.046875 0 0.09375 0.03125q0.0625 0.03125 0.09375 0.109375q0.03125 0.078125 0.046875 0.21875q0.03125 0.140625 0.03125 0.359375zm11.5859375 0.765625q0 0.09375 -0.046875 0.15625q-0.03125 0.0625 -0.140625 0.125q-0.109375 0.046875 -0.28125 0.0625q-0.15625 0.03125 -0.40625 0.03125q-0.265625 0 -0.4375 -0.03125q-0.171875 -0.015625 -0.28125 -0.0625q-0.09375 -0.0625 -0.125 -0.125q-0.03125 -0.0625 -0.03125 -0.15625l0 -1.390625q-0.90625 1.0 -1.796875 1.453125q-0.875 0.453125 -1.765625 0.453125q-1.0625 0 -1.78125 -0.34375q-0.71875 -0.359375 -1.171875 -0.953125q-0.4375 -0.609375 -0.640625 -1.40625q-0.1875 -0.8125 -0.1875 -1.953125l0 -6.40625q0 -0.09375 0.03125 -0.15625q0.046875 -0.0625 0.15625 -0.109375q0.125 -0.0625 0.3125 -0.078125q0.1875 -0.015625 0.46875 -0.015625q0.28125 0 0.46875 0.015625q0.1875 0.015625 0.296875 0.078125q0.125 0.046875 0.171875 0.109375q0.046875 0.0625 0.046875 0.15625l0 6.140625q0 0.921875 0.125 1.484375q0.140625 0.5625 0.40625 0.953125q0.28125 0.390625 0.703125 0.609375q0.421875 0.21875 0.984375 0.21875q0.734375 0 1.453125 -0.515625q0.71875 -0.515625 1.53125 -1.515625l0 -7.375q0 -0.09375 0.03125 -0.15625q0.046875 -0.0625 0.15625 -0.109375q0.125 -0.0625 0.296875 -0.078125q0.1875 -0.015625 0.484375 -0.015625q0.28125 0 0.46875 0.015625q0.1875 0.015625 0.28125 0.078125q0.109375 0.046875 0.15625 0.109375q0.0625 0.0625 0.0625 0.15625l0 10.546875zm9.734375 -9.859375q0 0.265625 -0.015625 0.4375q0 0.171875 -0.046875 0.28125q-0.03125 0.09375 -0.078125 0.15625q-0.046875 0.046875 -0.140625 0.046875q-0.09375 0 -0.234375 -0.046875q-0.140625 -0.0625 -0.3125 -0.109375q-0.15625 -0.0625 -0.375 -0.109375q-0.203125 -0.046875 -0.453125 -0.046875q-0.296875 0 -0.578125 0.125q-0.28125 0.109375 -0.59375 0.390625q-0.3125 0.265625 -0.65625 0.71875q-0.328125 0.4375 -0.734375 1.078125l0 6.9375q0 0.09375 -0.046875 0.15625q-0.046875 0.0625 -0.15625 0.125q-0.109375 0.046875 -0.296875 0.0625q-0.1875 0.03125 -0.484375 0.03125q-0.28125 0 -0.46875 -0.03125q-0.1875 -0.015625 -0.296875 -0.0625q-0.109375 -0.0625 -0.15625 -0.125q-0.03125 -0.0625 -0.03125 -0.15625l0 -10.546875q0 -0.09375 0.03125 -0.15625q0.03125 -0.0625 0.140625 -0.109375q0.109375 -0.0625 0.265625 -0.078125q0.171875 -0.015625 0.4375 -0.015625q0.265625 0 0.421875 0.015625q0.171875 0.015625 0.265625 0.078125q0.09375 0.046875 0.140625 0.109375q0.046875 0.0625 0.046875 0.15625l0 1.53125q0.421875 -0.625 0.796875 -1.015625q0.390625 -0.40625 0.734375 -0.625q0.34375 -0.234375 0.671875 -0.328125q0.328125 -0.09375 0.671875 -0.09375q0.15625 0 0.34375 0.03125q0.203125 0.015625 0.40625 0.0625q0.21875 0.046875 0.375 0.109375q0.171875 0.046875 0.234375 0.109375q0.078125 0.0625 0.09375 0.109375q0.03125 0.046875 0.046875 0.140625q0.03125 0.078125 0.03125 0.234375q0 0.15625 0 0.421875zm11.2109375 4.125q0 0.46875 -0.234375 0.65625q-0.21875 0.1875 -0.515625 0.1875l-6.921875 0q0 0.890625 0.171875 1.59375q0.1875 0.703125 0.59375 1.203125q0.40625 0.5 1.0625 0.78125q0.65625 0.265625 1.609375 0.265625q0.75 0 1.328125 -0.125q0.59375 -0.125 1.015625 -0.28125q0.4375 -0.15625 0.703125 -0.265625q0.28125 -0.125 0.421875 -0.125q0.078125 0 0.140625 0.046875q0.078125 0.03125 0.109375 0.109375q0.03125 0.078125 0.046875 0.234375q0.015625 0.140625 0.015625 0.359375q0 0.140625 -0.015625 0.265625q0 0.109375 -0.015625 0.203125q-0.015625 0.078125 -0.0625 0.15625q-0.046875 0.0625 -0.109375 0.125q-0.0625 0.0625 -0.375 0.21875q-0.3125 0.140625 -0.828125 0.28125q-0.5 0.140625 -1.171875 0.25q-0.65625 0.109375 -1.40625 0.109375q-1.296875 0 -2.28125 -0.359375q-0.96875 -0.359375 -1.640625 -1.078125q-0.671875 -0.71875 -1.015625 -1.796875q-0.328125 -1.078125 -0.328125 -2.5q0 -1.359375 0.34375 -2.4375q0.359375 -1.09375 1.015625 -1.84375q0.671875 -0.765625 1.609375 -1.171875q0.9375 -0.40625 2.09375 -0.40625q1.234375 0 2.109375 0.40625q0.875 0.390625 1.4375 1.078125q0.5625 0.671875 0.828125 1.578125q0.265625 0.90625 0.265625 1.9375l0 0.34375zm-1.953125 -0.5625q0.046875 -1.53125 -0.671875 -2.390625q-0.703125 -0.875 -2.09375 -0.875q-0.71875 0 -1.265625 0.28125q-0.53125 0.265625 -0.90625 0.71875q-0.359375 0.4375 -0.5625 1.03125q-0.1875 0.578125 -0.21875 1.234375l5.71875 0zm16.101562 -8.578125q0 0.21875 -0.03125 0.359375q-0.015625 0.125 -0.046875 0.21875q-0.03125 0.078125 -0.078125 0.109375q-0.046875 0.015625 -0.125 0.015625q-0.078125 0 -0.203125 -0.046875q-0.125 -0.046875 -0.296875 -0.109375q-0.171875 -0.078125 -0.421875 -0.125q-0.234375 -0.046875 -0.546875 -0.046875q-0.4375 0 -0.75 0.140625q-0.296875 0.140625 -0.484375 0.4375q-0.1875 0.296875 -0.265625 0.78125q-0.078125 0.46875 -0.078125 1.140625l0 1.15625l2.34375 0q0.09375 0 0.15625 0.046875q0.078125 0.03125 0.125 0.140625q0.046875 0.09375 0.078125 0.25q0.03125 0.140625 0.03125 0.359375q0 0.421875 -0.109375 0.609375q-0.09375 0.1875 -0.28125 0.1875l-2.34375 0l0 9.25q0 0.09375 -0.046875 0.15625q-0.046875 0.0625 -0.171875 0.125q-0.109375 0.046875 -0.296875 0.0625q-0.1875 0.03125 -0.46875 0.03125q-0.28125 0 -0.46875 -0.03125q-0.1875 -0.015625 -0.296875 -0.0625q-0.109375 -0.0625 -0.15625 -0.125q-0.046875 -0.0625 -0.046875 -0.15625l0 -9.25l-1.484375 0q-0.1875 0 -0.28125 -0.1875q-0.09375 -0.1875 -0.09375 -0.609375q0 -0.21875 0.015625 -0.359375q0.03125 -0.15625 0.078125 -0.25q0.046875 -0.109375 0.109375 -0.140625q0.078125 -0.046875 0.171875 -0.046875l1.484375 0l0 -1.09375q0 -1.109375 0.203125 -1.890625q0.203125 -0.796875 0.625 -1.296875q0.421875 -0.5 1.0625 -0.734375q0.640625 -0.25 1.515625 -0.25q0.40625 0 0.78125 0.078125q0.390625 0.078125 0.59375 0.171875q0.21875 0.078125 0.28125 0.15625q0.078125 0.0625 0.125 0.171875q0.046875 0.109375 0.0625 0.265625q0.03125 0.15625 0.03125 0.390625zm11.355469 9.484375q0 1.296875 -0.34375 2.375q-0.34375 1.078125 -1.015625 1.875q-0.671875 0.78125 -1.6875 1.21875q-1.015625 0.4375 -2.34375 0.4375q-1.3125 0 -2.28125 -0.375q-0.953125 -0.390625 -1.609375 -1.125q-0.640625 -0.75 -0.953125 -1.796875q-0.3125 -1.0625 -0.3125 -2.390625q0 -1.296875 0.328125 -2.375q0.328125 -1.09375 1.0 -1.875q0.6875 -0.78125 1.6875 -1.21875q1.015625 -0.4375 2.359375 -0.4375q1.296875 0 2.265625 0.390625q0.96875 0.390625 1.609375 1.125q0.640625 0.734375 0.96875 1.796875q0.328125 1.046875 0.328125 2.375zm-2.046875 0.125q0 -0.84375 -0.15625 -1.609375q-0.15625 -0.765625 -0.53125 -1.328125q-0.359375 -0.578125 -0.984375 -0.90625q-0.609375 -0.34375 -1.53125 -0.34375q-0.859375 0 -1.484375 0.3125q-0.609375 0.296875 -1.015625 0.859375q-0.390625 0.546875 -0.59375 1.3125q-0.1875 0.765625 -0.1875 1.65625q0 0.875 0.15625 1.640625q0.171875 0.75 0.53125 1.328125q0.375 0.5625 0.984375 0.90625q0.625 0.328125 1.5625 0.328125q0.84375 0 1.453125 -0.296875q0.625 -0.3125 1.015625 -0.859375q0.40625 -0.5625 0.59375 -1.3125q0.1875 -0.765625 0.1875 -1.6875zm12.46875 3.65625q0 0.203125 -0.015625 0.359375q0 0.140625 -0.03125 0.25q-0.03125 0.09375 -0.078125 0.171875q-0.03125 0.0625 -0.1875 0.21875q-0.140625 0.140625 -0.5 0.359375q-0.34375 0.21875 -0.78125 0.390625q-0.4375 0.171875 -0.953125 0.265625q-0.515625 0.109375 -1.078125 0.109375q-1.125 0 -2.015625 -0.375q-0.875 -0.375 -1.46875 -1.09375q-0.59375 -0.71875 -0.90625 -1.765625q-0.296875 -1.046875 -0.296875 -2.421875q0 -1.5625 0.375 -2.671875q0.375 -1.125 1.03125 -1.84375q0.671875 -0.71875 1.5625 -1.0625q0.90625 -0.34375 1.953125 -0.34375q0.5 0 0.96875 0.09375q0.484375 0.09375 0.875 0.25q0.40625 0.15625 0.703125 0.359375q0.3125 0.1875 0.453125 0.328125q0.140625 0.140625 0.1875 0.234375q0.0625 0.078125 0.09375 0.1875q0.046875 0.109375 0.046875 0.25q0.015625 0.140625 0.015625 0.34375q0 0.46875 -0.109375 0.65625q-0.09375 0.171875 -0.25 0.171875q-0.171875 0 -0.40625 -0.1875q-0.234375 -0.203125 -0.59375 -0.4375q-0.34375 -0.234375 -0.84375 -0.421875q-0.484375 -0.203125 -1.171875 -0.203125q-1.390625 0 -2.140625 1.078125q-0.734375 1.078125 -0.734375 3.109375q0 1.015625 0.1875 1.796875q0.1875 0.765625 0.5625 1.28125q0.375 0.515625 0.921875 0.765625q0.546875 0.25 1.25 0.25q0.671875 0 1.171875 -0.203125q0.5 -0.21875 0.875 -0.46875q0.375 -0.25 0.625 -0.453125q0.25 -0.21875 0.390625 -0.21875q0.078125 0 0.140625 0.046875q0.0625 0.046875 0.09375 0.171875q0.046875 0.109375 0.0625 0.28125q0.015625 0.15625 0.015625 0.390625zm11.6015625 1.609375q0 0.09375 -0.046875 0.15625q-0.03125 0.0625 -0.140625 0.125q-0.109375 0.046875 -0.28125 0.0625q-0.15625 0.03125 -0.40625 0.03125q-0.265625 0 -0.4375 -0.03125q-0.171875 -0.015625 -0.28125 -0.0625q-0.09375 -0.0625 -0.125 -0.125q-0.03125 -0.0625 -0.03125 -0.15625l0 -1.390625q-0.90625 1.0 -1.796875 1.453125q-0.875 0.453125 -1.765625 0.453125q-1.0625 0 -1.78125 -0.34375q-0.71875 -0.359375 -1.171875 -0.953125q-0.4375 -0.609375 -0.640625 -1.40625q-0.1875 -0.8125 -0.1875 -1.953125l0 -6.40625q0 -0.09375 0.03125 -0.15625q0.046875 -0.0625 0.15625 -0.109375q0.125 -0.0625 0.3125 -0.078125q0.1875 -0.015625 0.46875 -0.015625q0.28125 0 0.46875 0.015625q0.1875 0.015625 0.296875 0.078125q0.125 0.046875 0.171875 0.109375q0.046875 0.0625 0.046875 0.15625l0 6.140625q0 0.921875 0.125 1.484375q0.140625 0.5625 0.40625 0.953125q0.28125 0.390625 0.703125 0.609375q0.421875 0.21875 0.984375 0.21875q0.734375 0 1.453125 -0.515625q0.71875 -0.515625 1.53125 -1.515625l0 -7.375q0 -0.09375 0.03125 -0.15625q0.046875 -0.0625 0.15625 -0.109375q0.125 -0.0625 0.296875 -0.078125q0.1875 -0.015625 0.484375 -0.015625q0.28125 0 0.46875 0.015625q0.1875 0.015625 0.28125 0.078125q0.109375 0.046875 0.15625 0.109375q0.0625 0.0625 0.0625 0.15625l0 10.546875zm10.203125 -2.875q0 0.8125 -0.3125 1.453125q-0.296875 0.625 -0.84375 1.0625q-0.546875 0.4375 -1.3125 0.65625q-0.765625 0.21875 -1.671875 0.21875q-0.5625 0 -1.078125 -0.09375q-0.5 -0.078125 -0.90625 -0.203125q-0.40625 -0.140625 -0.6875 -0.28125q-0.28125 -0.15625 -0.421875 -0.265625q-0.125 -0.125 -0.1875 -0.328125q-0.046875 -0.21875 -0.046875 -0.578125q0 -0.234375 0.015625 -0.375q0.03125 -0.15625 0.0625 -0.25q0.03125 -0.09375 0.09375 -0.125q0.078125 -0.046875 0.15625 -0.046875q0.125 0 0.375 0.15625q0.25 0.15625 0.625 0.34375q0.375 0.1875 0.875 0.34375q0.5 0.15625 1.15625 0.15625q0.5 0 0.890625 -0.09375q0.40625 -0.109375 0.6875 -0.3125q0.296875 -0.21875 0.453125 -0.53125q0.15625 -0.3125 0.15625 -0.75q0 -0.4375 -0.234375 -0.734375q-0.21875 -0.3125 -0.59375 -0.546875q-0.375 -0.234375 -0.84375 -0.421875q-0.46875 -0.1875 -0.96875 -0.375q-0.5 -0.203125 -0.96875 -0.453125q-0.46875 -0.25 -0.84375 -0.609375q-0.375 -0.375 -0.609375 -0.875q-0.234375 -0.5 -0.234375 -1.203125q0 -0.625 0.234375 -1.1875q0.25 -0.578125 0.734375 -1.0q0.484375 -0.4375 1.203125 -0.6875q0.71875 -0.265625 1.671875 -0.265625q0.421875 0 0.84375 0.078125q0.421875 0.0625 0.765625 0.171875q0.34375 0.109375 0.578125 0.234375q0.25 0.125 0.359375 0.21875q0.125 0.09375 0.171875 0.171875q0.046875 0.0625 0.0625 0.15625q0.015625 0.078125 0.03125 0.203125q0.015625 0.125 0.015625 0.3125q0 0.203125 -0.015625 0.359375q-0.015625 0.140625 -0.0625 0.234375q-0.03125 0.09375 -0.09375 0.140625q-0.0625 0.03125 -0.125 0.03125q-0.109375 0 -0.3125 -0.125q-0.203125 -0.125 -0.515625 -0.265625q-0.3125 -0.15625 -0.75 -0.28125q-0.421875 -0.140625 -0.96875 -0.140625q-0.5 0 -0.875 0.125q-0.375 0.109375 -0.609375 0.3125q-0.234375 0.203125 -0.359375 0.484375q-0.125 0.28125 -0.125 0.609375q0 0.453125 0.234375 0.765625q0.234375 0.3125 0.609375 0.546875q0.375 0.234375 0.84375 0.421875q0.484375 0.1875 0.984375 0.390625q0.5 0.1875 0.984375 0.4375q0.484375 0.25 0.859375 0.609375q0.375 0.34375 0.609375 0.84375q0.234375 0.484375 0.234375 1.15625zm11.761719 -2.859375q0 0.46875 -0.234375 0.65625q-0.21875 0.1875 -0.515625 0.1875l-6.921875 0q0 0.890625 0.171875 1.59375q0.1875 0.703125 0.59375 1.203125q0.40625 0.5 1.0625 0.78125q0.65625 0.265625 1.609375 0.265625q0.75 0 1.328125 -0.125q0.59375 -0.125 1.015625 -0.28125q0.4375 -0.15625 0.703125 -0.265625q0.28125 -0.125 0.421875 -0.125q0.078125 0 0.140625 0.046875q0.078125 0.03125 0.109375 0.109375q0.03125 0.078125 0.046875 0.234375q0.015625 0.140625 0.015625 0.359375q0 0.140625 -0.015625 0.265625q0 0.109375 -0.015625 0.203125q-0.015625 0.078125 -0.0625 0.15625q-0.046875 0.0625 -0.109375 0.125q-0.0625 0.0625 -0.375 0.21875q-0.3125 0.140625 -0.828125 0.28125q-0.5 0.140625 -1.171875 0.25q-0.65625 0.109375 -1.40625 0.109375q-1.296875 0 -2.28125 -0.359375q-0.96875 -0.359375 -1.640625 -1.078125q-0.671875 -0.71875 -1.015625 -1.796875q-0.328125 -1.078125 -0.328125 -2.5q0 -1.359375 0.34375 -2.4375q0.359375 -1.09375 1.015625 -1.84375q0.671875 -0.765625 1.609375 -1.171875q0.9375 -0.40625 2.09375 -0.40625q1.234375 0 2.109375 0.40625q0.875 0.390625 1.4375 1.078125q0.5625 0.671875 0.828125 1.578125q0.265625 0.90625 0.265625 1.9375l0 0.34375zm-1.953125 -0.5625q0.046875 -1.53125 -0.671875 -2.390625q-0.703125 -0.875 -2.09375 -0.875q-0.71875 0 -1.265625 0.28125q-0.53125 0.265625 -0.90625 0.71875q-0.359375 0.4375 -0.5625 1.03125q-0.1875 0.578125 -0.21875 1.234375l5.71875 0zm13.925781 6.296875q0 0.09375 -0.046875 0.171875q-0.03125 0.0625 -0.140625 0.109375q-0.09375 0.046875 -0.265625 0.0625q-0.15625 0.03125 -0.390625 0.03125q-0.25 0 -0.421875 -0.03125q-0.15625 -0.015625 -0.265625 -0.0625q-0.09375 -0.046875 -0.140625 -0.109375q-0.046875 -0.078125 -0.046875 -0.171875l0 -1.390625q-0.828125 0.90625 -1.734375 1.40625q-0.890625 0.5 -1.953125 0.5q-1.171875 0 -2.0 -0.453125q-0.8125 -0.453125 -1.328125 -1.21875q-0.5 -0.765625 -0.734375 -1.796875q-0.234375 -1.046875 -0.234375 -2.1875q0 -1.359375 0.296875 -2.453125q0.296875 -1.09375 0.859375 -1.859375q0.578125 -0.78125 1.421875 -1.203125q0.859375 -0.421875 1.96875 -0.421875q0.921875 0 1.6875 0.40625q0.78125 0.40625 1.53125 1.1875l0 -6.125q0 -0.078125 0.03125 -0.15625q0.046875 -0.078125 0.15625 -0.109375q0.125 -0.046875 0.296875 -0.078125q0.1875 -0.03125 0.46875 -0.03125q0.296875 0 0.484375 0.03125q0.1875 0.03125 0.28125 0.078125q0.109375 0.03125 0.15625 0.109375q0.0625 0.078125 0.0625 0.15625l0 15.609375zm-1.9375 -7.421875q-0.796875 -0.96875 -1.53125 -1.46875q-0.71875 -0.515625 -1.515625 -0.515625q-0.75 0 -1.265625 0.359375q-0.515625 0.34375 -0.84375 0.921875q-0.3125 0.5625 -0.46875 1.296875q-0.140625 0.71875 -0.140625 1.46875q0 0.796875 0.125 1.5625q0.125 0.765625 0.421875 1.359375q0.3125 0.59375 0.8125 0.953125q0.515625 0.34375 1.265625 0.34375q0.390625 0 0.75 -0.09375q0.359375 -0.109375 0.734375 -0.359375q0.375 -0.25 0.78125 -0.640625q0.40625 -0.390625 0.875 -0.96875l0 -4.21875zm20.644531 1.984375q0 1.390625 -0.296875 2.5q-0.296875 1.09375 -0.890625 1.859375q-0.578125 0.765625 -1.4375 1.1875q-0.84375 0.40625 -1.953125 0.40625q-0.46875 0 -0.875 -0.09375q-0.390625 -0.09375 -0.765625 -0.28125q-0.375 -0.203125 -0.75 -0.5q-0.375 -0.3125 -0.796875 -0.734375l0 5.28125q0 0.09375 -0.046875 0.15625q-0.046875 0.078125 -0.15625 0.125q-0.109375 0.046875 -0.296875 0.0625q-0.1875 0.03125 -0.484375 0.03125q-0.28125 0 -0.46875 -0.03125q-0.1875 -0.015625 -0.296875 -0.0625q-0.109375 -0.046875 -0.15625 -0.125q-0.03125 -0.0625 -0.03125 -0.15625l0 -14.734375q0 -0.109375 0.03125 -0.171875q0.03125 -0.0625 0.140625 -0.109375q0.109375 -0.046875 0.265625 -0.0625q0.171875 -0.015625 0.40625 -0.015625q0.25 0 0.40625 0.015625q0.15625 0.015625 0.25 0.0625q0.109375 0.046875 0.15625 0.109375q0.046875 0.0625 0.046875 0.171875l0 1.421875q0.46875 -0.5 0.90625 -0.859375q0.453125 -0.359375 0.90625 -0.59375q0.453125 -0.25 0.921875 -0.375q0.484375 -0.125 1.015625 -0.125q1.140625 0 1.953125 0.453125q0.8125 0.4375 1.3125 1.21875q0.515625 0.765625 0.75 1.796875q0.234375 1.03125 0.234375 2.171875zm-2.046875 0.21875q0 -0.796875 -0.125 -1.546875q-0.109375 -0.765625 -0.421875 -1.34375q-0.296875 -0.59375 -0.796875 -0.9375q-0.5 -0.359375 -1.25 -0.359375q-0.375 0 -0.75 0.109375q-0.359375 0.109375 -0.734375 0.359375q-0.375 0.234375 -0.78125 0.625q-0.40625 0.390625 -0.859375 0.96875l0 4.1875q0.796875 0.984375 1.5 1.5q0.71875 0.515625 1.5 0.515625q0.734375 0 1.25 -0.34375q0.53125 -0.359375 0.84375 -0.9375q0.328125 -0.59375 0.46875 -1.3125q0.15625 -0.734375 0.15625 -1.484375zm13.953125 -0.515625q0 0.46875 -0.234375 0.65625q-0.21875 0.1875 -0.515625 0.1875l-6.921875 0q0 0.890625 0.171875 1.59375q0.1875 0.703125 0.59375 1.203125q0.40625 0.5 1.0625 0.78125q0.65625 0.265625 1.609375 0.265625q0.75 0 1.328125 -0.125q0.59375 -0.125 1.015625 -0.28125q0.4375 -0.15625 0.703125 -0.265625q0.28125 -0.125 0.421875 -0.125q0.078125 0 0.140625 0.046875q0.078125 0.03125 0.109375 0.109375q0.03125 0.078125 0.046875 0.234375q0.015625 0.140625 0.015625 0.359375q0 0.140625 -0.015625 0.265625q0 0.109375 -0.015625 0.203125q-0.015625 0.078125 -0.0625 0.15625q-0.046875 0.0625 -0.109375 0.125q-0.0625 0.0625 -0.375 0.21875q-0.3125 0.140625 -0.828125 0.28125q-0.5 0.140625 -1.171875 0.25q-0.65625 0.109375 -1.40625 0.109375q-1.296875 0 -2.28125 -0.359375q-0.96875 -0.359375 -1.640625 -1.078125q-0.671875 -0.71875 -1.015625 -1.796875q-0.328125 -1.078125 -0.328125 -2.5q0 -1.359375 0.34375 -2.4375q0.359375 -1.09375 1.015625 -1.84375q0.671875 -0.765625 1.609375 -1.171875q0.9375 -0.40625 2.09375 -0.40625q1.234375 0 2.109375 0.40625q0.875 0.390625 1.4375 1.078125q0.5625 0.671875 0.828125 1.578125q0.265625 0.90625 0.265625 1.9375l0 0.34375zm-1.953125 -0.5625q0.046875 -1.53125 -0.671875 -2.390625q-0.703125 -0.875 -2.09375 -0.875q-0.71875 0 -1.265625 0.28125q-0.53125 0.265625 -0.90625 0.71875q-0.359375 0.4375 -0.5625 1.03125q-0.1875 0.578125 -0.21875 1.234375l5.71875 0zm11.050781 -3.5625q0 0.265625 -0.015625 0.4375q0 0.171875 -0.046875 0.28125q-0.03125 0.09375 -0.078125 0.15625q-0.046875 0.046875 -0.140625 0.046875q-0.09375 0 -0.234375 -0.046875q-0.140625 -0.0625 -0.3125 -0.109375q-0.15625 -0.0625 -0.375 -0.109375q-0.203125 -0.046875 -0.453125 -0.046875q-0.296875 0 -0.578125 0.125q-0.28125 0.109375 -0.59375 0.390625q-0.3125 0.265625 -0.65625 0.71875q-0.328125 0.4375 -0.734375 1.078125l0 6.9375q0 0.09375 -0.046875 0.15625q-0.046875 0.0625 -0.15625 0.125q-0.109375 0.046875 -0.296875 0.0625q-0.1875 0.03125 -0.484375 0.03125q-0.28125 0 -0.46875 -0.03125q-0.1875 -0.015625 -0.296875 -0.0625q-0.109375 -0.0625 -0.15625 -0.125q-0.03125 -0.0625 -0.03125 -0.15625l0 -10.546875q0 -0.09375 0.03125 -0.15625q0.03125 -0.0625 0.140625 -0.109375q0.109375 -0.0625 0.265625 -0.078125q0.171875 -0.015625 0.4375 -0.015625q0.265625 0 0.421875 0.015625q0.171875 0.015625 0.265625 0.078125q0.09375 0.046875 0.140625 0.109375q0.046875 0.0625 0.046875 0.15625l0 1.53125q0.421875 -0.625 0.796875 -1.015625q0.390625 -0.40625 0.734375 -0.625q0.34375 -0.234375 0.671875 -0.328125q0.328125 -0.09375 0.671875 -0.09375q0.15625 0 0.34375 0.03125q0.203125 0.015625 0.40625 0.0625q0.21875 0.046875 0.375 0.109375q0.171875 0.046875 0.234375 0.109375q0.078125 0.0625 0.09375 0.109375q0.03125 0.046875 0.046875 0.140625q0.03125 0.078125 0.03125 0.234375q0 0.15625 0 0.421875zm7.9921875 -5.015625q0 0.21875 -0.03125 0.359375q-0.015625 0.125 -0.046875 0.21875q-0.03125 0.078125 -0.078125 0.109375q-0.046875 0.015625 -0.125 0.015625q-0.078125 0 -0.203125 -0.046875q-0.125 -0.046875 -0.296875 -0.109375q-0.171875 -0.078125 -0.421875 -0.125q-0.234375 -0.046875 -0.546875 -0.046875q-0.4375 0 -0.75 0.140625q-0.296875 0.140625 -0.484375 0.4375q-0.1875 0.296875 -0.265625 0.78125q-0.078125 0.46875 -0.078125 1.140625l0 1.15625l2.34375 0q0.09375 0 0.15625 0.046875q0.078125 0.03125 0.125 0.140625q0.046875 0.09375 0.078125 0.25q0.03125 0.140625 0.03125 0.359375q0 0.421875 -0.109375 0.609375q-0.09375 0.1875 -0.28125 0.1875l-2.34375 0l0 9.25q0 0.09375 -0.046875 0.15625q-0.046875 0.0625 -0.171875 0.125q-0.109375 0.046875 -0.296875 0.0625q-0.1875 0.03125 -0.46875 0.03125q-0.28125 0 -0.46875 -0.03125q-0.1875 -0.015625 -0.296875 -0.0625q-0.109375 -0.0625 -0.15625 -0.125q-0.046875 -0.0625 -0.046875 -0.15625l0 -9.25l-1.484375 0q-0.1875 0 -0.28125 -0.1875q-0.09375 -0.1875 -0.09375 -0.609375q0 -0.21875 0.015625 -0.359375q0.03125 -0.15625 0.078125 -0.25q0.046875 -0.109375 0.109375 -0.140625q0.078125 -0.046875 0.171875 -0.046875l1.484375 0l0 -1.09375q0 -1.109375 0.203125 -1.890625q0.203125 -0.796875 0.625 -1.296875q0.421875 -0.5 1.0625 -0.734375q0.640625 -0.25 1.515625 -0.25q0.40625 0 0.78125 0.078125q0.390625 0.078125 0.59375 0.171875q0.21875 0.078125 0.28125 0.15625q0.078125 0.0625 0.125 0.171875q0.046875 0.109375 0.0625 0.265625q0.03125 0.15625 0.03125 0.390625zm11.355469 9.484375q0 1.296875 -0.34375 2.375q-0.34375 1.078125 -1.015625 1.875q-0.671875 0.78125 -1.6875 1.21875q-1.015625 0.4375 -2.34375 0.4375q-1.3125 0 -2.28125 -0.375q-0.953125 -0.390625 -1.609375 -1.125q-0.640625 -0.75 -0.953125 -1.796875q-0.3125 -1.0625 -0.3125 -2.390625q0 -1.296875 0.328125 -2.375q0.328125 -1.09375 1.0 -1.875q0.6875 -0.78125 1.6875 -1.21875q1.015625 -0.4375 2.359375 -0.4375q1.296875 0 2.265625 0.390625q0.96875 0.390625 1.609375 1.125q0.640625 0.734375 0.96875 1.796875q0.328125 1.046875 0.328125 2.375zm-2.046875 0.125q0 -0.84375 -0.15625 -1.609375q-0.15625 -0.765625 -0.53125 -1.328125q-0.359375 -0.578125 -0.984375 -0.90625q-0.609375 -0.34375 -1.53125 -0.34375q-0.859375 0 -1.484375 0.3125q-0.609375 0.296875 -1.015625 0.859375q-0.390625 0.546875 -0.59375 1.3125q-0.1875 0.765625 -0.1875 1.65625q0 0.875 0.15625 1.640625q0.171875 0.75 0.53125 1.328125q0.375 0.5625 0.984375 0.90625q0.625 0.328125 1.5625 0.328125q0.84375 0 1.453125 -0.296875q0.625 -0.3125 1.015625 -0.859375q0.40625 -0.5625 0.59375 -1.3125q0.1875 -0.765625 0.1875 -1.6875zm11.046875 -4.59375q0 0.265625 -0.015625 0.4375q0 0.171875 -0.046875 0.28125q-0.03125 0.09375 -0.078125 0.15625q-0.046875 0.046875 -0.140625 0.046875q-0.09375 0 -0.234375 -0.046875q-0.140625 -0.0625 -0.3125 -0.109375q-0.15625 -0.0625 -0.375 -0.109375q-0.203125 -0.046875 -0.453125 -0.046875q-0.296875 0 -0.578125 0.125q-0.28125 0.109375 -0.59375 0.390625q-0.3125 0.265625 -0.65625 0.71875q-0.328125 0.4375 -0.734375 1.078125l0 6.9375q0 0.09375 -0.046875 0.15625q-0.046875 0.0625 -0.15625 0.125q-0.109375 0.046875 -0.296875 0.0625q-0.1875 0.03125 -0.484375 0.03125q-0.28125 0 -0.46875 -0.03125q-0.1875 -0.015625 -0.296875 -0.0625q-0.109375 -0.0625 -0.15625 -0.125q-0.03125 -0.0625 -0.03125 -0.15625l0 -10.546875q0 -0.09375 0.03125 -0.15625q0.03125 -0.0625 0.140625 -0.109375q0.109375 -0.0625 0.265625 -0.078125q0.171875 -0.015625 0.4375 -0.015625q0.265625 0 0.421875 0.015625q0.171875 0.015625 0.265625 0.078125q0.09375 0.046875 0.140625 0.109375q0.046875 0.0625 0.046875 0.15625l0 1.53125q0.421875 -0.625 0.796875 -1.015625q0.390625 -0.40625 0.734375 -0.625q0.34375 -0.234375 0.671875 -0.328125q0.328125 -0.09375 0.671875 -0.09375q0.15625 0 0.34375 0.03125q0.203125 0.015625 0.40625 0.0625q0.21875 0.046875 0.375 0.109375q0.171875 0.046875 0.234375 0.109375q0.078125 0.0625 0.09375 0.109375q0.03125 0.046875 0.046875 0.140625q0.03125 0.078125 0.03125 0.234375q0 0.15625 0 0.421875zm17.851562 9.859375q0 0.09375 -0.046875 0.15625q-0.046875 0.0625 -0.15625 0.125q-0.09375 0.046875 -0.28125 0.0625q-0.1875 0.03125 -0.46875 0.03125q-0.296875 0 -0.484375 -0.03125q-0.1875 -0.015625 -0.296875 -0.0625q-0.109375 -0.0625 -0.15625 -0.125q-0.046875 -0.0625 -0.046875 -0.15625l0 -6.40625q0 -0.671875 -0.125 -1.21875q-0.109375 -0.546875 -0.375 -0.9375q-0.25 -0.40625 -0.65625 -0.609375q-0.390625 -0.21875 -0.9375 -0.21875q-0.671875 0 -1.34375 0.515625q-0.671875 0.515625 -1.484375 1.5l0 7.375q0 0.09375 -0.046875 0.15625q-0.046875 0.0625 -0.15625 0.125q-0.109375 0.046875 -0.296875 0.0625q-0.1875 0.03125 -0.46875 0.03125q-0.265625 0 -0.46875 -0.03125q-0.1875 -0.015625 -0.296875 -0.0625q-0.109375 -0.0625 -0.15625 -0.125q-0.03125 -0.0625 -0.03125 -0.15625l0 -6.40625q0 -0.671875 -0.140625 -1.21875q-0.125 -0.546875 -0.390625 -0.9375q-0.25 -0.40625 -0.640625 -0.609375q-0.390625 -0.21875 -0.9375 -0.21875q-0.65625 0 -1.34375 0.515625q-0.671875 0.515625 -1.46875 1.5l0 7.375q0 0.09375 -0.046875 0.15625q-0.046875 0.0625 -0.15625 0.125q-0.109375 0.046875 -0.296875 0.0625q-0.1875 0.03125 -0.484375 0.03125q-0.28125 0 -0.46875 -0.03125q-0.1875 -0.015625 -0.296875 -0.0625q-0.109375 -0.0625 -0.15625 -0.125q-0.03125 -0.0625 -0.03125 -0.15625l0 -10.546875q0 -0.09375 0.03125 -0.15625q0.03125 -0.0625 0.140625 -0.109375q0.109375 -0.0625 0.265625 -0.078125q0.171875 -0.015625 0.4375 -0.015625q0.265625 0 0.421875 0.015625q0.171875 0.015625 0.265625 0.078125q0.09375 0.046875 0.140625 0.109375q0.046875 0.0625 0.046875 0.15625l0 1.390625q0.890625 -0.984375 1.71875 -1.453125q0.84375 -0.46875 1.703125 -0.46875q0.65625 0 1.171875 0.15625q0.515625 0.15625 0.90625 0.4375q0.40625 0.265625 0.6875 0.65625q0.28125 0.375 0.46875 0.84375q0.53125 -0.578125 1.0 -0.96875q0.484375 -0.40625 0.921875 -0.640625q0.4375 -0.25 0.84375 -0.359375q0.421875 -0.125 0.84375 -0.125q1.03125 0 1.71875 0.359375q0.6875 0.359375 1.109375 0.96875q0.4375 0.59375 0.609375 1.390625q0.1875 0.796875 0.1875 1.6875l0 6.671875zm11.46875 0.015625q0 0.140625 -0.09375 0.21875q-0.09375 0.0625 -0.265625 0.09375q-0.15625 0.046875 -0.46875 0.046875q-0.296875 0 -0.484375 -0.046875q-0.1875 -0.03125 -0.265625 -0.09375q-0.078125 -0.078125 -0.078125 -0.21875l0 -1.0625q-0.6875 0.75 -1.546875 1.15625q-0.84375 0.40625 -1.796875 0.40625q-0.828125 0 -1.5 -0.21875q-0.671875 -0.21875 -1.15625 -0.625q-0.46875 -0.40625 -0.734375 -1.0q-0.265625 -0.609375 -0.265625 -1.359375q0 -0.890625 0.359375 -1.546875q0.375 -0.65625 1.046875 -1.09375q0.6875 -0.4375 1.671875 -0.65625q0.984375 -0.21875 2.203125 -0.21875l1.453125 0l0 -0.8125q0 -0.609375 -0.125 -1.078125q-0.125 -0.46875 -0.421875 -0.78125q-0.28125 -0.3125 -0.734375 -0.46875q-0.453125 -0.15625 -1.125 -0.15625q-0.71875 0 -1.296875 0.171875q-0.5625 0.171875 -0.984375 0.375q-0.421875 0.203125 -0.71875 0.375q-0.28125 0.171875 -0.421875 0.171875q-0.09375 0 -0.171875 -0.046875q-0.0625 -0.046875 -0.125 -0.140625q-0.046875 -0.09375 -0.078125 -0.234375q-0.015625 -0.15625 -0.015625 -0.328125q0 -0.296875 0.03125 -0.46875q0.046875 -0.171875 0.203125 -0.3125q0.171875 -0.15625 0.546875 -0.359375q0.390625 -0.21875 0.890625 -0.375q0.515625 -0.171875 1.109375 -0.28125q0.59375 -0.125 1.203125 -0.125q1.140625 0 1.9375 0.265625q0.796875 0.25 1.28125 0.75q0.5 0.5 0.71875 1.25q0.21875 0.734375 0.21875 1.71875l0 7.109375zm-1.921875 -4.8125l-1.640625 0q-0.796875 0 -1.390625 0.140625q-0.578125 0.125 -0.96875 0.390625q-0.390625 0.265625 -0.578125 0.640625q-0.171875 0.359375 -0.171875 0.84375q0 0.8125 0.515625 1.296875q0.53125 0.484375 1.46875 0.484375q0.75 0 1.40625 -0.375q0.65625 -0.390625 1.359375 -1.1875l0 -2.234375zm14.558594 4.796875q0 0.09375 -0.046875 0.15625q-0.046875 0.0625 -0.15625 0.125q-0.09375 0.046875 -0.28125 0.0625q-0.1875 0.03125 -0.46875 0.03125q-0.296875 0 -0.484375 -0.03125q-0.1875 -0.015625 -0.296875 -0.0625q-0.109375 -0.0625 -0.15625 -0.125q-0.046875 -0.0625 -0.046875 -0.15625l0 -6.171875q0 -0.90625 -0.140625 -1.453125q-0.140625 -0.546875 -0.40625 -0.9375q-0.265625 -0.40625 -0.703125 -0.609375q-0.421875 -0.21875 -0.984375 -0.21875q-0.71875 0 -1.453125 0.515625q-0.71875 0.515625 -1.515625 1.5l0 7.375q0 0.09375 -0.046875 0.15625q-0.046875 0.0625 -0.15625 0.125q-0.109375 0.046875 -0.296875 0.0625q-0.1875 0.03125 -0.484375 0.03125q-0.28125 0 -0.46875 -0.03125q-0.1875 -0.015625 -0.296875 -0.0625q-0.109375 -0.0625 -0.15625 -0.125q-0.03125 -0.0625 -0.03125 -0.15625l0 -10.546875q0 -0.09375 0.03125 -0.15625q0.03125 -0.0625 0.140625 -0.109375q0.109375 -0.0625 0.265625 -0.078125q0.171875 -0.015625 0.4375 -0.015625q0.265625 0 0.421875 0.015625q0.171875 0.015625 0.265625 0.078125q0.09375 0.046875 0.140625 0.109375q0.046875 0.0625 0.046875 0.15625l0 1.390625q0.890625 -0.984375 1.765625 -1.453125q0.890625 -0.46875 1.796875 -0.46875q1.046875 0 1.765625 0.359375q0.71875 0.359375 1.15625 0.96875q0.453125 0.59375 0.640625 1.390625q0.203125 0.796875 0.203125 1.921875l0 6.4375zm11.109375 -1.609375q0 0.203125 -0.015625 0.359375q0 0.140625 -0.03125 0.25q-0.03125 0.09375 -0.078125 0.171875q-0.03125 0.0625 -0.1875 0.21875q-0.140625 0.140625 -0.5 0.359375q-0.34375 0.21875 -0.78125 0.390625q-0.4375 0.171875 -0.953125 0.265625q-0.515625 0.109375 -1.078125 0.109375q-1.125 0 -2.015625 -0.375q-0.875 -0.375 -1.46875 -1.09375q-0.59375 -0.71875 -0.90625 -1.765625q-0.296875 -1.046875 -0.296875 -2.421875q0 -1.5625 0.375 -2.671875q0.375 -1.125 1.03125 -1.84375q0.671875 -0.71875 1.5625 -1.0625q0.90625 -0.34375 1.953125 -0.34375q0.5 0 0.96875 0.09375q0.484375 0.09375 0.875 0.25q0.40625 0.15625 0.703125 0.359375q0.3125 0.1875 0.453125 0.328125q0.140625 0.140625 0.1875 0.234375q0.0625 0.078125 0.09375 0.1875q0.046875 0.109375 0.046875 0.25q0.015625 0.140625 0.015625 0.34375q0 0.46875 -0.109375 0.65625q-0.09375 0.171875 -0.25 0.171875q-0.171875 0 -0.40625 -0.1875q-0.234375 -0.203125 -0.59375 -0.4375q-0.34375 -0.234375 -0.84375 -0.421875q-0.484375 -0.203125 -1.171875 -0.203125q-1.390625 0 -2.140625 1.078125q-0.734375 1.078125 -0.734375 3.109375q0 1.015625 0.1875 1.796875q0.1875 0.765625 0.5625 1.28125q0.375 0.515625 0.921875 0.765625q0.546875 0.25 1.25 0.25q0.671875 0 1.171875 -0.203125q0.5 -0.21875 0.875 -0.46875q0.375 -0.25 0.625 -0.453125q0.25 -0.21875 0.390625 -0.21875q0.078125 0 0.140625 0.046875q0.0625 0.046875 0.09375 0.171875q0.046875 0.109375 0.0625 0.28125q0.015625 0.15625 0.015625 0.390625zm11.5703125 -4.125q0 0.46875 -0.234375 0.65625q-0.21875 0.1875 -0.515625 0.1875l-6.921875 0q0 0.890625 0.171875 1.59375q0.1875 0.703125 0.59375 1.203125q0.40625 0.5 1.0625 0.78125q0.65625 0.265625 1.609375 0.265625q0.75 0 1.328125 -0.125q0.59375 -0.125 1.015625 -0.28125q0.4375 -0.15625 0.703125 -0.265625q0.28125 -0.125 0.421875 -0.125q0.078125 0 0.140625 0.046875q0.078125 0.03125 0.109375 0.109375q0.03125 0.078125 0.046875 0.234375q0.015625 0.140625 0.015625 0.359375q0 0.140625 -0.015625 0.265625q0 0.109375 -0.015625 0.203125q-0.015625 0.078125 -0.0625 0.15625q-0.046875 0.0625 -0.109375 0.125q-0.0625 0.0625 -0.375 0.21875q-0.3125 0.140625 -0.828125 0.28125q-0.5 0.140625 -1.171875 0.25q-0.65625 0.109375 -1.40625 0.109375q-1.296875 0 -2.28125 -0.359375q-0.96875 -0.359375 -1.640625 -1.078125q-0.671875 -0.71875 -1.015625 -1.796875q-0.328125 -1.078125 -0.328125 -2.5q0 -1.359375 0.34375 -2.4375q0.359375 -1.09375 1.015625 -1.84375q0.671875 -0.765625 1.609375 -1.171875q0.9375 -0.40625 2.09375 -0.40625q1.234375 0 2.109375 0.40625q0.875 0.390625 1.4375 1.078125q0.5625 0.671875 0.828125 1.578125q0.265625 0.90625 0.265625 1.9375l0 0.34375zm-1.953125 -0.5625q0.046875 -1.53125 -0.671875 -2.390625q-0.703125 -0.875 -2.09375 -0.875q-0.71875 0 -1.265625 0.28125q-0.53125 0.265625 -0.90625 0.71875q-0.359375 0.4375 -0.5625 1.03125q-0.1875 0.578125 -0.21875 1.234375l5.71875 0z" fill-rule="nonzero"></path></g></svg>
